<svg width="300" height="300" xmlns="http://www.w3.org/2000/svg"><title>search icon</title><defs><linearGradient id="a"><stop stop-color="#fff" offset="0"/><stop stop-color="#d2d5d8" offset="1"/></linearGradient></defs><title>Layer 1</title><path fill="#454040" d="M35.94 35.086c-43.274 43.272-43.38 114.16-.107 157.432 36.663 36.663 93.202 42.25 135.92 16.766L248.1 283.52c10.507 10.197 27.085 9.82 37.117-.845 10.033-10.665 9.77-27.446-.738-37.644l-75.183-72.863c26.36-42.847 21.008-100.045-16.028-137.08-43.273-43.274-114.055-43.274-157.327 0zm31.738 31.74c26.102-26.103 67.746-26.103 93.848 0 26.102 26.1 26.102 67.745 0 93.847-26.102 26.102-67.746 26.102-93.848 0-26.102-26.102-26.102-67.746 0-93.848z"/></svg>